<mxfile host="app.diagrams.net" modified="2021-05-20T11:23:19.066Z" agent="5.0 (Macintosh; Intel Mac OS X 10_15_7) AppleWebKit/537.36 (KHTML, like Gecko) Chrome/90.0.4430.212 Safari/537.36" etag="1CFoEstFgZRHXtf070En" version="14.6.13" type="github" pages="2">
  <diagram id="83-qcjnb8JGmeSmuc8b6" name="主框架">
    <mxGraphModel dx="1186" dy="1908" grid="1" gridSize="10" guides="1" tooltips="1" connect="1" arrows="1" fold="1" page="1" pageScale="1" pageWidth="827" pageHeight="1169" math="0" shadow="0">
      <root>
        <mxCell id="0" />
        <mxCell id="1" parent="0" />
        <mxCell id="VZI2p-cYhnuxlReJ1ar1-98" value="" style="rounded=0;whiteSpace=wrap;html=1;align=left;fillColor=#ffe6cc;strokeColor=#d79b00;fontFamily=TTTGB;" parent="1" vertex="1">
          <mxGeometry x="70" y="100" width="920" height="120" as="geometry" />
        </mxCell>
        <mxCell id="VZI2p-cYhnuxlReJ1ar1-49" value="" style="rounded=0;whiteSpace=wrap;html=1;align=left;fillColor=#e1d5e7;strokeColor=#9673a6;fontFamily=TTTGB;" parent="1" vertex="1">
          <mxGeometry x="710" y="470" width="280" height="300" as="geometry" />
        </mxCell>
        <mxCell id="VZI2p-cYhnuxlReJ1ar1-24" value="" style="rounded=0;whiteSpace=wrap;html=1;align=left;fillColor=#dae8fc;strokeColor=#6c8ebf;fontFamily=TTTGB;" parent="1" vertex="1">
          <mxGeometry x="70" y="240" width="620" height="530" as="geometry" />
        </mxCell>
        <mxCell id="VZI2p-cYhnuxlReJ1ar1-21" value="" style="group;fontFamily=TTTGB;" parent="1" vertex="1" connectable="0">
          <mxGeometry x="230" y="290" width="300" height="460" as="geometry" />
        </mxCell>
        <mxCell id="VZI2p-cYhnuxlReJ1ar1-19" value="" style="rounded=0;whiteSpace=wrap;html=1;align=left;fontFamily=TTTGB;" parent="VZI2p-cYhnuxlReJ1ar1-21" vertex="1">
          <mxGeometry width="300" height="460" as="geometry" />
        </mxCell>
        <mxCell id="VZI2p-cYhnuxlReJ1ar1-2" value="" style="rounded=0;whiteSpace=wrap;html=1;fontFamily=TTTGB;" parent="VZI2p-cYhnuxlReJ1ar1-21" vertex="1">
          <mxGeometry x="10" y="390" width="280" height="60" as="geometry" />
        </mxCell>
        <mxCell id="VZI2p-cYhnuxlReJ1ar1-1" value="WebSocket" style="rounded=1;whiteSpace=wrap;html=1;fontFamily=TTTGB;" parent="VZI2p-cYhnuxlReJ1ar1-21" vertex="1">
          <mxGeometry x="40" y="400" width="230" height="40" as="geometry" />
        </mxCell>
        <mxCell id="VZI2p-cYhnuxlReJ1ar1-3" value="" style="rounded=0;whiteSpace=wrap;html=1;fontFamily=TTTGB;" parent="VZI2p-cYhnuxlReJ1ar1-21" vertex="1">
          <mxGeometry x="10" y="190" width="280" height="190" as="geometry" />
        </mxCell>
        <mxCell id="VZI2p-cYhnuxlReJ1ar1-4" value="MQTT协议" style="rounded=1;whiteSpace=wrap;html=1;fontFamily=TTTGB;" parent="VZI2p-cYhnuxlReJ1ar1-21" vertex="1">
          <mxGeometry x="40" y="330" width="100" height="40" as="geometry" />
        </mxCell>
        <mxCell id="VZI2p-cYhnuxlReJ1ar1-5" value="消息队列管理" style="rounded=1;whiteSpace=wrap;html=1;fontFamily=TTTGB;" parent="VZI2p-cYhnuxlReJ1ar1-21" vertex="1">
          <mxGeometry x="170" y="330" width="100" height="40" as="geometry" />
        </mxCell>
        <mxCell id="VZI2p-cYhnuxlReJ1ar1-6" value="Qos" style="rounded=1;whiteSpace=wrap;html=1;fontFamily=TTTGB;" parent="VZI2p-cYhnuxlReJ1ar1-21" vertex="1">
          <mxGeometry x="40" y="275" width="100" height="40" as="geometry" />
        </mxCell>
        <mxCell id="VZI2p-cYhnuxlReJ1ar1-7" value="自适应心跳" style="rounded=1;whiteSpace=wrap;html=1;fontFamily=TTTGB;" parent="VZI2p-cYhnuxlReJ1ar1-21" vertex="1">
          <mxGeometry x="170" y="274.5" width="100" height="40" as="geometry" />
        </mxCell>
        <mxCell id="VZI2p-cYhnuxlReJ1ar1-8" value="配置管理" style="rounded=1;whiteSpace=wrap;html=1;fontFamily=TTTGB;" parent="VZI2p-cYhnuxlReJ1ar1-21" vertex="1">
          <mxGeometry x="40" y="220" width="100" height="40" as="geometry" />
        </mxCell>
        <mxCell id="VZI2p-cYhnuxlReJ1ar1-9" value="认证鉴权" style="rounded=1;whiteSpace=wrap;html=1;fontFamily=TTTGB;" parent="VZI2p-cYhnuxlReJ1ar1-21" vertex="1">
          <mxGeometry x="170" y="220" width="100" height="40" as="geometry" />
        </mxCell>
        <mxCell id="VZI2p-cYhnuxlReJ1ar1-10" value="MQTT协议层&amp;amp;网络连接层" style="text;html=1;strokeColor=none;fillColor=none;align=left;verticalAlign=middle;whiteSpace=wrap;rounded=0;fontFamily=TTTGB;" parent="VZI2p-cYhnuxlReJ1ar1-21" vertex="1">
          <mxGeometry x="20" y="195" width="170" height="20" as="geometry" />
        </mxCell>
        <mxCell id="VZI2p-cYhnuxlReJ1ar1-11" value="" style="rounded=0;whiteSpace=wrap;html=1;fontFamily=TTTGB;" parent="VZI2p-cYhnuxlReJ1ar1-21" vertex="1">
          <mxGeometry x="10" y="40" width="280" height="140" as="geometry" />
        </mxCell>
        <mxCell id="VZI2p-cYhnuxlReJ1ar1-14" value="消息发送" style="rounded=1;whiteSpace=wrap;html=1;fontFamily=TTTGB;" parent="VZI2p-cYhnuxlReJ1ar1-21" vertex="1">
          <mxGeometry x="40" y="125" width="100" height="40" as="geometry" />
        </mxCell>
        <mxCell id="VZI2p-cYhnuxlReJ1ar1-15" value="消息接收/分发" style="rounded=1;whiteSpace=wrap;html=1;fontFamily=TTTGB;" parent="VZI2p-cYhnuxlReJ1ar1-21" vertex="1">
          <mxGeometry x="170" y="124.5" width="100" height="40" as="geometry" />
        </mxCell>
        <mxCell id="VZI2p-cYhnuxlReJ1ar1-16" value="业务管理" style="rounded=1;whiteSpace=wrap;html=1;fontFamily=TTTGB;" parent="VZI2p-cYhnuxlReJ1ar1-21" vertex="1">
          <mxGeometry x="40" y="70" width="100" height="40" as="geometry" />
        </mxCell>
        <mxCell id="VZI2p-cYhnuxlReJ1ar1-17" value="配置管理" style="rounded=1;whiteSpace=wrap;html=1;fontFamily=TTTGB;" parent="VZI2p-cYhnuxlReJ1ar1-21" vertex="1">
          <mxGeometry x="170" y="70" width="100" height="40" as="geometry" />
        </mxCell>
        <mxCell id="VZI2p-cYhnuxlReJ1ar1-18" value="业务适配" style="text;html=1;strokeColor=none;fillColor=none;align=left;verticalAlign=middle;whiteSpace=wrap;rounded=0;fontFamily=TTTGB;" parent="VZI2p-cYhnuxlReJ1ar1-21" vertex="1">
          <mxGeometry x="20" y="45" width="170" height="20" as="geometry" />
        </mxCell>
        <mxCell id="VZI2p-cYhnuxlReJ1ar1-20" value="长链接" style="text;html=1;strokeColor=none;fillColor=none;align=left;verticalAlign=middle;whiteSpace=wrap;rounded=0;fontFamily=TTTGB;" parent="VZI2p-cYhnuxlReJ1ar1-21" vertex="1">
          <mxGeometry x="10" y="10" width="170" height="20" as="geometry" />
        </mxCell>
        <mxCell id="VZI2p-cYhnuxlReJ1ar1-22" value="&lt;span style=&quot;font-size: 23px&quot;&gt;短链接&lt;br&gt;（哈雷）&lt;/span&gt;" style="rounded=0;whiteSpace=wrap;html=1;align=center;fontFamily=TTTGB;" parent="1" vertex="1">
          <mxGeometry x="90" y="290" width="120" height="460" as="geometry" />
        </mxCell>
        <mxCell id="VZI2p-cYhnuxlReJ1ar1-23" value="&lt;span style=&quot;font-size: 23px&quot;&gt;QUIC&lt;/span&gt;" style="rounded=0;whiteSpace=wrap;html=1;align=center;fontFamily=TTTGB;" parent="1" vertex="1">
          <mxGeometry x="550" y="290" width="120" height="460" as="geometry" />
        </mxCell>
        <mxCell id="VZI2p-cYhnuxlReJ1ar1-44" value="&lt;font style=&quot;font-size: 16px&quot;&gt;链接层&lt;/font&gt;" style="text;html=1;strokeColor=none;fillColor=none;align=left;verticalAlign=middle;whiteSpace=wrap;rounded=0;fontFamily=TTTGB;" parent="1" vertex="1">
          <mxGeometry x="90" y="260" width="170" height="20" as="geometry" />
        </mxCell>
        <mxCell id="VZI2p-cYhnuxlReJ1ar1-45" value="日志" style="rounded=1;whiteSpace=wrap;html=1;align=center;fontFamily=TTTGB;fontSize=16;" parent="1" vertex="1">
          <mxGeometry x="730" y="575" width="240" height="55" as="geometry" />
        </mxCell>
        <mxCell id="VZI2p-cYhnuxlReJ1ar1-46" value="上报" style="rounded=1;whiteSpace=wrap;html=1;align=center;fontFamily=TTTGB;fontSize=16;" parent="1" vertex="1">
          <mxGeometry x="730" y="641" width="240" height="55" as="geometry" />
        </mxCell>
        <mxCell id="VZI2p-cYhnuxlReJ1ar1-47" value="持久化" style="rounded=1;whiteSpace=wrap;html=1;align=center;fontFamily=TTTGB;fontSize=16;" parent="1" vertex="1">
          <mxGeometry x="730" y="706" width="240" height="55" as="geometry" />
        </mxCell>
        <mxCell id="VZI2p-cYhnuxlReJ1ar1-48" value="NetworkUtils" style="rounded=1;whiteSpace=wrap;html=1;align=center;fontFamily=TTTGB;fontSize=16;" parent="1" vertex="1">
          <mxGeometry x="730" y="510" width="240" height="55" as="geometry" />
        </mxCell>
        <mxCell id="VZI2p-cYhnuxlReJ1ar1-50" value="基础工具" style="text;html=1;strokeColor=none;fillColor=none;align=left;verticalAlign=middle;whiteSpace=wrap;rounded=0;fontFamily=TTTGB;" parent="1" vertex="1">
          <mxGeometry x="720" y="480" width="170" height="20" as="geometry" />
        </mxCell>
        <mxCell id="VZI2p-cYhnuxlReJ1ar1-51" value="" style="rounded=0;whiteSpace=wrap;html=1;align=left;fillColor=#d5e8d4;strokeColor=#82b366;fontFamily=TTTGB;" parent="1" vertex="1">
          <mxGeometry x="710" y="240" width="280" height="220" as="geometry" />
        </mxCell>
        <mxCell id="VZI2p-cYhnuxlReJ1ar1-52" value="DNS query" style="rounded=1;whiteSpace=wrap;html=1;align=center;fontFamily=TTTGB;" parent="1" vertex="1">
          <mxGeometry x="730" y="339" width="240" height="55" as="geometry" />
        </mxCell>
        <mxCell id="VZI2p-cYhnuxlReJ1ar1-55" value="ping" style="rounded=1;whiteSpace=wrap;html=1;align=center;fontFamily=TTTGB;" parent="1" vertex="1">
          <mxGeometry x="730" y="280" width="240" height="55" as="geometry" />
        </mxCell>
        <mxCell id="VZI2p-cYhnuxlReJ1ar1-56" value="基础能力" style="text;html=1;strokeColor=none;fillColor=none;align=left;verticalAlign=middle;whiteSpace=wrap;rounded=0;fontFamily=TTTGB;" parent="1" vertex="1">
          <mxGeometry x="720" y="250" width="170" height="20" as="geometry" />
        </mxCell>
        <mxCell id="VZI2p-cYhnuxlReJ1ar1-57" value="DNS query" style="rounded=1;whiteSpace=wrap;html=1;align=center;fontFamily=TTTGB;" parent="1" vertex="1">
          <mxGeometry x="730" y="397" width="240" height="55" as="geometry" />
        </mxCell>
        <mxCell id="VZI2p-cYhnuxlReJ1ar1-88" value="吞吐量采样" style="rounded=1;whiteSpace=wrap;html=1;align=center;fontFamily=TTTGB;fontSize=16;" parent="1" vertex="1">
          <mxGeometry x="730" y="397" width="240" height="55" as="geometry" />
        </mxCell>
        <mxCell id="VZI2p-cYhnuxlReJ1ar1-90" value="ping" style="rounded=1;whiteSpace=wrap;html=1;align=center;fontFamily=TTTGB;" parent="1" vertex="1">
          <mxGeometry x="730" y="280" width="240" height="55" as="geometry" />
        </mxCell>
        <mxCell id="VZI2p-cYhnuxlReJ1ar1-92" value="IP直连" style="rounded=1;whiteSpace=wrap;html=1;align=center;fontFamily=TTTGB;fontSize=14;" parent="1" vertex="1">
          <mxGeometry x="90" y="140" width="120" height="60" as="geometry" />
        </mxCell>
        <mxCell id="VZI2p-cYhnuxlReJ1ar1-93" value="弱网诊断" style="rounded=1;whiteSpace=wrap;html=1;align=center;fontFamily=TTTGB;fontSize=14;" parent="1" vertex="1">
          <mxGeometry x="242" y="140" width="120" height="60" as="geometry" />
        </mxCell>
        <mxCell id="VZI2p-cYhnuxlReJ1ar1-94" value="智能重试" style="rounded=1;whiteSpace=wrap;html=1;align=center;fontFamily=TTTGB;fontSize=14;" parent="1" vertex="1">
          <mxGeometry x="394" y="140" width="120" height="60" as="geometry" />
        </mxCell>
        <mxCell id="VZI2p-cYhnuxlReJ1ar1-95" value="多链路支持" style="rounded=1;whiteSpace=wrap;html=1;align=center;fontFamily=TTTGB;fontSize=14;" parent="1" vertex="1">
          <mxGeometry x="546" y="140" width="120" height="60" as="geometry" />
        </mxCell>
        <mxCell id="VZI2p-cYhnuxlReJ1ar1-96" value="监控告警" style="rounded=1;whiteSpace=wrap;html=1;align=center;fontFamily=TTTGB;" parent="1" vertex="1">
          <mxGeometry x="698" y="140" width="120" height="60" as="geometry" />
        </mxCell>
        <mxCell id="VZI2p-cYhnuxlReJ1ar1-97" value="..." style="rounded=1;whiteSpace=wrap;html=1;align=center;fontFamily=TTTGB;" parent="1" vertex="1">
          <mxGeometry x="850" y="140" width="120" height="60" as="geometry" />
        </mxCell>
        <mxCell id="VZI2p-cYhnuxlReJ1ar1-99" value="&lt;span style=&quot;font-size: 16px&quot;&gt;策略层&lt;/span&gt;" style="text;html=1;strokeColor=none;fillColor=none;align=left;verticalAlign=middle;whiteSpace=wrap;rounded=0;fontFamily=TTTGB;" parent="1" vertex="1">
          <mxGeometry x="90" y="110" width="170" height="20" as="geometry" />
        </mxCell>
        <mxCell id="VZI2p-cYhnuxlReJ1ar1-100" value="" style="rounded=0;whiteSpace=wrap;html=1;align=left;fillColor=#f8cecc;strokeColor=#b85450;fontFamily=TTTGB;" parent="1" vertex="1">
          <mxGeometry x="70" y="-40" width="920" height="120" as="geometry" />
        </mxCell>
        <mxCell id="VZI2p-cYhnuxlReJ1ar1-101" value="普通请求" style="rounded=1;whiteSpace=wrap;html=1;align=center;fontFamily=TTTGB;" parent="1" vertex="1">
          <mxGeometry x="90" width="120" height="60" as="geometry" />
        </mxCell>
        <mxCell id="VZI2p-cYhnuxlReJ1ar1-102" value="图片请求" style="rounded=1;whiteSpace=wrap;html=1;align=center;fontFamily=TTTGB;" parent="1" vertex="1">
          <mxGeometry x="242" width="120" height="60" as="geometry" />
        </mxCell>
        <mxCell id="VZI2p-cYhnuxlReJ1ar1-103" value="消息注册" style="rounded=1;whiteSpace=wrap;html=1;align=center;fontFamily=TTTGB;" parent="1" vertex="1">
          <mxGeometry x="394" width="120" height="60" as="geometry" />
        </mxCell>
        <mxCell id="VZI2p-cYhnuxlReJ1ar1-104" value="大文件上传" style="rounded=1;whiteSpace=wrap;html=1;align=center;fontFamily=TTTGB;" parent="1" vertex="1">
          <mxGeometry x="546" width="120" height="60" as="geometry" />
        </mxCell>
        <mxCell id="VZI2p-cYhnuxlReJ1ar1-105" value="大文件下载" style="rounded=1;whiteSpace=wrap;html=1;align=center;fontFamily=TTTGB;" parent="1" vertex="1">
          <mxGeometry x="698" width="120" height="60" as="geometry" />
        </mxCell>
        <mxCell id="VZI2p-cYhnuxlReJ1ar1-106" value="..." style="rounded=1;whiteSpace=wrap;html=1;align=center;fontFamily=TTTGB;" parent="1" vertex="1">
          <mxGeometry x="850" width="120" height="60" as="geometry" />
        </mxCell>
        <mxCell id="VZI2p-cYhnuxlReJ1ar1-107" value="&lt;span style=&quot;font-size: 16px&quot;&gt;接口层&lt;/span&gt;" style="text;html=1;strokeColor=none;fillColor=none;align=left;verticalAlign=middle;whiteSpace=wrap;rounded=0;fontFamily=TTTGB;" parent="1" vertex="1">
          <mxGeometry x="90" y="-30" width="170" height="20" as="geometry" />
        </mxCell>
        <mxCell id="3vIl5vL8Hbmxvg6xes9X-1" value="ping" style="rounded=1;whiteSpace=wrap;html=1;align=center;fontFamily=TTTGB;fontSize=16;" parent="1" vertex="1">
          <mxGeometry x="730" y="280" width="240" height="55" as="geometry" />
        </mxCell>
        <mxCell id="3vIl5vL8Hbmxvg6xes9X-2" value="DNS query" style="rounded=1;whiteSpace=wrap;html=1;align=center;fontFamily=TTTGB;fontSize=16;" parent="1" vertex="1">
          <mxGeometry x="730" y="339" width="240" height="55" as="geometry" />
        </mxCell>
        <mxCell id="3vIl5vL8Hbmxvg6xes9X-9" value="普通请求" style="rounded=1;whiteSpace=wrap;html=1;align=center;fontFamily=TTTGB;" parent="1" vertex="1">
          <mxGeometry x="90" width="120" height="60" as="geometry" />
        </mxCell>
        <mxCell id="3vIl5vL8Hbmxvg6xes9X-10" value="图片请求" style="rounded=1;whiteSpace=wrap;html=1;align=center;fontFamily=TTTGB;" parent="1" vertex="1">
          <mxGeometry x="242" width="120" height="60" as="geometry" />
        </mxCell>
        <mxCell id="3vIl5vL8Hbmxvg6xes9X-11" value="消息注册" style="rounded=1;whiteSpace=wrap;html=1;align=center;fontFamily=TTTGB;" parent="1" vertex="1">
          <mxGeometry x="394" width="120" height="60" as="geometry" />
        </mxCell>
        <mxCell id="3vIl5vL8Hbmxvg6xes9X-12" value="大文件上传" style="rounded=1;whiteSpace=wrap;html=1;align=center;fontFamily=TTTGB;" parent="1" vertex="1">
          <mxGeometry x="546" width="120" height="60" as="geometry" />
        </mxCell>
        <mxCell id="3vIl5vL8Hbmxvg6xes9X-13" value="大文件下载" style="rounded=1;whiteSpace=wrap;html=1;align=center;fontFamily=TTTGB;" parent="1" vertex="1">
          <mxGeometry x="698" width="120" height="60" as="geometry" />
        </mxCell>
        <mxCell id="3vIl5vL8Hbmxvg6xes9X-14" value="监控告警" style="rounded=1;whiteSpace=wrap;html=1;align=center;fontFamily=TTTGB;" parent="1" vertex="1">
          <mxGeometry x="698" y="140" width="120" height="60" as="geometry" />
        </mxCell>
        <mxCell id="3vIl5vL8Hbmxvg6xes9X-15" value="普通请求" style="rounded=1;whiteSpace=wrap;html=1;align=center;fontFamily=TTTGB;fontSize=14;" parent="1" vertex="1">
          <mxGeometry x="90" width="120" height="60" as="geometry" />
        </mxCell>
        <mxCell id="3vIl5vL8Hbmxvg6xes9X-16" value="图片请求" style="rounded=1;whiteSpace=wrap;html=1;align=center;fontFamily=TTTGB;fontSize=14;" parent="1" vertex="1">
          <mxGeometry x="242" width="120" height="60" as="geometry" />
        </mxCell>
        <mxCell id="3vIl5vL8Hbmxvg6xes9X-17" value="消息注册" style="rounded=1;whiteSpace=wrap;html=1;align=center;fontFamily=TTTGB;fontSize=14;" parent="1" vertex="1">
          <mxGeometry x="394" width="120" height="60" as="geometry" />
        </mxCell>
        <mxCell id="3vIl5vL8Hbmxvg6xes9X-18" value="大文件上传" style="rounded=1;whiteSpace=wrap;html=1;align=center;fontFamily=TTTGB;fontSize=14;" parent="1" vertex="1">
          <mxGeometry x="546" width="120" height="60" as="geometry" />
        </mxCell>
        <mxCell id="3vIl5vL8Hbmxvg6xes9X-19" value="大文件下载" style="rounded=1;whiteSpace=wrap;html=1;align=center;fontFamily=TTTGB;fontSize=14;" parent="1" vertex="1">
          <mxGeometry x="698" width="120" height="60" as="geometry" />
        </mxCell>
        <mxCell id="3vIl5vL8Hbmxvg6xes9X-20" value="监控告警" style="rounded=1;whiteSpace=wrap;html=1;align=center;fontFamily=TTTGB;fontSize=14;" parent="1" vertex="1">
          <mxGeometry x="698" y="140" width="120" height="60" as="geometry" />
        </mxCell>
      </root>
    </mxGraphModel>
  </diagram>
  <diagram id="gKhb_r-Ocoxwo7qjok-Z" name="弱网状态图">
    <mxGraphModel dx="565" dy="325" grid="1" gridSize="10" guides="1" tooltips="1" connect="1" arrows="1" fold="1" page="1" pageScale="1" pageWidth="827" pageHeight="1169" math="0" shadow="0">
      <root>
        <mxCell id="fOyQ15nQtEurxdmu73fn-0" />
        <mxCell id="fOyQ15nQtEurxdmu73fn-1" parent="fOyQ15nQtEurxdmu73fn-0" />
        <mxCell id="fOyQ15nQtEurxdmu73fn-3" value="" style="ellipse;html=1;shape=startState;fillColor=#000000;strokeColor=#ff0000;fontFamily=TTTGB;fontSize=14;" parent="fOyQ15nQtEurxdmu73fn-1" vertex="1">
          <mxGeometry x="50" y="370" width="30" height="30" as="geometry" />
        </mxCell>
        <mxCell id="fOyQ15nQtEurxdmu73fn-4" value="" style="edgeStyle=orthogonalEdgeStyle;html=1;verticalAlign=bottom;endArrow=open;endSize=8;strokeColor=#ff0000;fontFamily=TTTGB;fontSize=14;" parent="fOyQ15nQtEurxdmu73fn-1" source="fOyQ15nQtEurxdmu73fn-3" edge="1">
          <mxGeometry relative="1" as="geometry">
            <mxPoint x="160" y="385" as="targetPoint" />
          </mxGeometry>
        </mxCell>
        <mxCell id="fOyQ15nQtEurxdmu73fn-6" value="OFFILNE" style="rounded=1;whiteSpace=wrap;html=1;fontFamily=TTTGB;fontSize=14;" parent="fOyQ15nQtEurxdmu73fn-1" vertex="1">
          <mxGeometry x="330" y="355" width="120" height="60" as="geometry" />
        </mxCell>
        <mxCell id="fOyQ15nQtEurxdmu73fn-7" value="" style="ellipse;html=1;shape=endState;fillColor=#000000;strokeColor=#ff0000;fontFamily=TTTGB;fontSize=14;" parent="fOyQ15nQtEurxdmu73fn-1" vertex="1">
          <mxGeometry x="550" y="370" width="30" height="30" as="geometry" />
        </mxCell>
        <mxCell id="fOyQ15nQtEurxdmu73fn-8" value="" style="edgeStyle=orthogonalEdgeStyle;html=1;verticalAlign=bottom;endArrow=open;endSize=8;strokeColor=#ff0000;fontFamily=TTTGB;fontSize=14;entryX=0;entryY=0.5;entryDx=0;entryDy=0;" parent="fOyQ15nQtEurxdmu73fn-1" target="fOyQ15nQtEurxdmu73fn-7" edge="1">
          <mxGeometry relative="1" as="geometry">
            <mxPoint x="610" y="384.5" as="targetPoint" />
            <mxPoint x="450" y="384.5" as="sourcePoint" />
          </mxGeometry>
        </mxCell>
        <mxCell id="fOyQ15nQtEurxdmu73fn-10" value="网络连通性" style="rhombus;whiteSpace=wrap;html=1;fillColor=#ffffc0;strokeColor=#ff0000;fontFamily=TTTGB;fontSize=14;" parent="fOyQ15nQtEurxdmu73fn-1" vertex="1">
          <mxGeometry x="160" y="360" width="110" height="50" as="geometry" />
        </mxCell>
        <mxCell id="fOyQ15nQtEurxdmu73fn-11" value="no" style="edgeStyle=orthogonalEdgeStyle;html=1;align=left;verticalAlign=bottom;endArrow=open;endSize=8;strokeColor=#ff0000;fontFamily=TTTGB;fontSize=14;" parent="fOyQ15nQtEurxdmu73fn-1" source="fOyQ15nQtEurxdmu73fn-10" edge="1">
          <mxGeometry x="-1" relative="1" as="geometry">
            <mxPoint x="330" y="385" as="targetPoint" />
          </mxGeometry>
        </mxCell>
        <mxCell id="fOyQ15nQtEurxdmu73fn-12" value="yes" style="edgeStyle=orthogonalEdgeStyle;html=1;align=left;verticalAlign=top;endArrow=open;endSize=8;strokeColor=#ff0000;fontFamily=TTTGB;fontSize=14;" parent="fOyQ15nQtEurxdmu73fn-1" source="fOyQ15nQtEurxdmu73fn-10" edge="1">
          <mxGeometry x="-1" relative="1" as="geometry">
            <mxPoint x="215" y="480" as="targetPoint" />
          </mxGeometry>
        </mxCell>
        <mxCell id="fOyQ15nQtEurxdmu73fn-14" value="start" style="text;html=1;strokeColor=none;fillColor=none;align=center;verticalAlign=middle;whiteSpace=wrap;rounded=0;fontFamily=TTTGB;fontSize=14;" parent="fOyQ15nQtEurxdmu73fn-1" vertex="1">
          <mxGeometry x="90" y="360" width="40" height="20" as="geometry" />
        </mxCell>
        <mxCell id="fOyQ15nQtEurxdmu73fn-17" value="end" style="text;html=1;strokeColor=none;fillColor=none;align=center;verticalAlign=middle;whiteSpace=wrap;rounded=0;fontFamily=TTTGB;fontSize=14;" parent="fOyQ15nQtEurxdmu73fn-1" vertex="1">
          <mxGeometry x="480" y="360" width="40" height="20" as="geometry" />
        </mxCell>
        <mxCell id="nJkjH7DKXuTanQgG_0F--1" value="连通性变化" style="edgeStyle=orthogonalEdgeStyle;html=1;align=left;verticalAlign=bottom;endArrow=open;endSize=8;strokeColor=#ff0000;fontFamily=TTTGB;fontSize=14;entryX=0.5;entryY=1;entryDx=0;entryDy=0;startArrow=open;startFill=0;startSize=8;" parent="fOyQ15nQtEurxdmu73fn-1" target="fOyQ15nQtEurxdmu73fn-6" edge="1">
          <mxGeometry x="-0.5556" y="-10" relative="1" as="geometry">
            <mxPoint x="340" y="395" as="targetPoint" />
            <mxPoint x="390" y="450" as="sourcePoint" />
            <mxPoint as="offset" />
          </mxGeometry>
        </mxCell>
        <mxCell id="nJkjH7DKXuTanQgG_0F--13" value="" style="group;fontFamily=TTTGB;" parent="fOyQ15nQtEurxdmu73fn-1" vertex="1" connectable="0">
          <mxGeometry x="240" y="550" width="290" height="250" as="geometry" />
        </mxCell>
        <mxCell id="nJkjH7DKXuTanQgG_0F--0" value="" style="rounded=1;whiteSpace=wrap;html=1;fontFamily=TTTGB;fontSize=14;arcSize=6;" parent="nJkjH7DKXuTanQgG_0F--13" vertex="1">
          <mxGeometry width="290" height="250" as="geometry" />
        </mxCell>
        <mxCell id="nJkjH7DKXuTanQgG_0F--2" value="GOOD/BAD" style="text;html=1;strokeColor=none;fillColor=none;align=center;verticalAlign=middle;whiteSpace=wrap;rounded=0;fontFamily=TTTGB;fontSize=14;" parent="nJkjH7DKXuTanQgG_0F--13" vertex="1">
          <mxGeometry x="25" y="10" width="40" height="20" as="geometry" />
        </mxCell>
        <mxCell id="nJkjH7DKXuTanQgG_0F--3" value="" style="ellipse;html=1;shape=startState;fillColor=#000000;strokeColor=#ff0000;fontFamily=TTTGB;fontSize=14;" parent="nJkjH7DKXuTanQgG_0F--13" vertex="1">
          <mxGeometry x="25" y="50" width="30" height="30" as="geometry" />
        </mxCell>
        <mxCell id="nJkjH7DKXuTanQgG_0F--4" value="" style="edgeStyle=orthogonalEdgeStyle;html=1;verticalAlign=bottom;endArrow=open;endSize=8;strokeColor=#ff0000;fontFamily=TTTGB;fontSize=14;entryX=0;entryY=0.5;entryDx=0;entryDy=0;exitX=1;exitY=0.5;exitDx=0;exitDy=0;" parent="nJkjH7DKXuTanQgG_0F--13" source="nJkjH7DKXuTanQgG_0F--3" target="nJkjH7DKXuTanQgG_0F--5" edge="1">
          <mxGeometry relative="1" as="geometry">
            <mxPoint x="40" y="140" as="targetPoint" />
            <Array as="points">
              <mxPoint x="70" y="65" />
              <mxPoint x="70" y="65" />
            </Array>
          </mxGeometry>
        </mxCell>
        <mxCell id="nJkjH7DKXuTanQgG_0F--5" value="主动探测" style="rounded=1;whiteSpace=wrap;html=1;fontFamily=TTTGB;fontSize=14;" parent="nJkjH7DKXuTanQgG_0F--13" vertex="1">
          <mxGeometry x="85" y="35" width="120" height="60" as="geometry" />
        </mxCell>
        <mxCell id="nJkjH7DKXuTanQgG_0F--6" value="被动采样" style="rounded=1;whiteSpace=wrap;html=1;fontFamily=TTTGB;fontSize=14;" parent="nJkjH7DKXuTanQgG_0F--13" vertex="1">
          <mxGeometry x="85" y="170" width="120" height="60" as="geometry" />
        </mxCell>
        <mxCell id="nJkjH7DKXuTanQgG_0F--7" value="" style="edgeStyle=orthogonalEdgeStyle;html=1;verticalAlign=bottom;endArrow=openAsync;endSize=8;strokeColor=#ff0000;fontFamily=TTTGB;fontSize=14;entryX=0.367;entryY=1.033;entryDx=0;entryDy=0;entryPerimeter=0;endFill=0;" parent="nJkjH7DKXuTanQgG_0F--13" target="nJkjH7DKXuTanQgG_0F--5" edge="1">
          <mxGeometry relative="1" as="geometry">
            <mxPoint x="445" y="190" as="targetPoint" />
            <mxPoint x="129" y="170" as="sourcePoint" />
          </mxGeometry>
        </mxCell>
        <mxCell id="nJkjH7DKXuTanQgG_0F--9" value="30s无请求/网络状态切换" style="text;html=1;strokeColor=none;fillColor=none;align=center;verticalAlign=middle;whiteSpace=wrap;rounded=0;fontFamily=TTTGB;fontSize=14;" parent="nJkjH7DKXuTanQgG_0F--13" vertex="1">
          <mxGeometry x="45" y="115" width="80" height="45" as="geometry" />
        </mxCell>
        <mxCell id="nJkjH7DKXuTanQgG_0F--11" value="" style="edgeStyle=orthogonalEdgeStyle;html=1;verticalAlign=bottom;endArrow=openAsync;endSize=8;strokeColor=#ff0000;fontFamily=TTTGB;fontSize=14;endFill=0;" parent="nJkjH7DKXuTanQgG_0F--13" edge="1">
          <mxGeometry relative="1" as="geometry">
            <mxPoint x="168" y="170" as="targetPoint" />
            <mxPoint x="168" y="95" as="sourcePoint" />
          </mxGeometry>
        </mxCell>
        <mxCell id="nJkjH7DKXuTanQgG_0F--12" value="上层发起网络请求" style="text;html=1;strokeColor=none;fillColor=none;align=center;verticalAlign=middle;whiteSpace=wrap;rounded=0;fontFamily=TTTGB;fontSize=14;" parent="nJkjH7DKXuTanQgG_0F--13" vertex="1">
          <mxGeometry x="175" y="115" width="80" height="45" as="geometry" />
        </mxCell>
        <mxCell id="nJkjH7DKXuTanQgG_0F--15" value="是否2G网络" style="rhombus;whiteSpace=wrap;html=1;fillColor=#ffffc0;strokeColor=#ff0000;fontFamily=TTTGB;fontSize=14;" parent="fOyQ15nQtEurxdmu73fn-1" vertex="1">
          <mxGeometry x="160" y="450" width="110" height="50" as="geometry" />
        </mxCell>
        <mxCell id="nJkjH7DKXuTanQgG_0F--16" value="yes" style="edgeStyle=orthogonalEdgeStyle;html=1;align=left;verticalAlign=bottom;endArrow=open;endSize=8;strokeColor=#ff0000;fontFamily=TTTGB;fontSize=14;" parent="fOyQ15nQtEurxdmu73fn-1" source="nJkjH7DKXuTanQgG_0F--15" edge="1">
          <mxGeometry x="-1" relative="1" as="geometry">
            <mxPoint x="330" y="475" as="targetPoint" />
          </mxGeometry>
        </mxCell>
        <mxCell id="nJkjH7DKXuTanQgG_0F--17" value="no" style="edgeStyle=orthogonalEdgeStyle;html=1;align=left;verticalAlign=top;endArrow=open;endSize=8;strokeColor=#ff0000;fontFamily=TTTGB;fontSize=14;entryX=0;entryY=0.5;entryDx=0;entryDy=0;" parent="fOyQ15nQtEurxdmu73fn-1" source="nJkjH7DKXuTanQgG_0F--15" target="nJkjH7DKXuTanQgG_0F--0" edge="1">
          <mxGeometry x="-1" relative="1" as="geometry">
            <mxPoint x="215" y="570" as="targetPoint" />
          </mxGeometry>
        </mxCell>
        <mxCell id="nJkjH7DKXuTanQgG_0F--18" value="BAD" style="rounded=1;whiteSpace=wrap;html=1;fontFamily=TTTGB;fontSize=14;" parent="fOyQ15nQtEurxdmu73fn-1" vertex="1">
          <mxGeometry x="330" y="450" width="120" height="60" as="geometry" />
        </mxCell>
        <mxCell id="nJkjH7DKXuTanQgG_0F--20" value="网络切换到2G" style="edgeStyle=orthogonalEdgeStyle;html=1;align=left;verticalAlign=bottom;endArrow=open;endSize=8;strokeColor=#ff0000;fontFamily=TTTGB;fontSize=14;entryX=0.5;entryY=1;entryDx=0;entryDy=0;startArrow=open;startFill=0;startSize=8;" parent="fOyQ15nQtEurxdmu73fn-1" target="nJkjH7DKXuTanQgG_0F--18" edge="1">
          <mxGeometry x="-0.3333" y="-10" relative="1" as="geometry">
            <mxPoint x="570" y="500" as="targetPoint" />
            <mxPoint x="390" y="550" as="sourcePoint" />
            <mxPoint as="offset" />
            <Array as="points">
              <mxPoint x="390" y="550" />
            </Array>
          </mxGeometry>
        </mxCell>
      </root>
    </mxGraphModel>
  </diagram>
</mxfile>
